<?xml version="1.0" encoding="UTF-8" standalone="no"?>
<svg
   xmlns:dc="http://purl.org/dc/elements/1.1/"
   xmlns:cc="http://creativecommons.org/ns#"
   xmlns:rdf="http://www.w3.org/1999/02/22-rdf-syntax-ns#"
   xmlns:svg="http://www.w3.org/2000/svg"
   xmlns="http://www.w3.org/2000/svg"
   xmlns:sodipodi="http://sodipodi.sourceforge.net/DTD/sodipodi-0.dtd"
   xmlns:inkscape="http://www.inkscape.org/namespaces/inkscape"
   aria-labelledby="title"
   role="img"
   viewBox="0 0 24 24"
   fill-rule="evenodd"
   clip-rule="evenodd"
   stroke-linejoin="round"
   stroke-miterlimit="1.414"
   version="1.1"
   id="svg106"
   sodipodi:docname="github.svg"
   inkscape:version="0.92.1 r15371">
  <metadata
     id="metadata112">
    <rdf:RDF>
      <cc:Work
         rdf:about="">
        <dc:format>image/svg+xml</dc:format>
        <dc:type
           rdf:resource="http://purl.org/dc/dcmitype/StillImage" />
      </cc:Work>
    </rdf:RDF>
  </metadata>
  <defs
     id="defs110" />
  <sodipodi:namedview
     pagecolor="#ffffff"
     bordercolor="#666666"
     borderopacity="1"
     objecttolerance="10"
     gridtolerance="10"
     guidetolerance="10"
     inkscape:pageopacity="0"
     inkscape:pageshadow="2"
     inkscape:window-width="423"
     inkscape:window-height="985"
     id="namedview108"
     showgrid="false"
     inkscape:zoom="9.8333333"
     inkscape:cx="12"
     inkscape:cy="12"
     inkscape:window-x="1707"
     inkscape:window-y="18"
     inkscape:window-maximized="0"
     inkscape:current-layer="svg106" />
  <title
     id="title102">GitHub icon</title>
  <path
     d="M12 .297c-6.63 0-12 5.373-12 12 0 5.303 3.438 9.8 8.205 11.385.6.113.82-.258.82-.577 0-.285-.01-1.04-.015-2.04-3.338.724-4.042-1.61-4.042-1.61C4.422 18.07 3.633 17.7 3.633 17.7c-1.087-.744.084-.729.084-.729 1.205.084 1.838 1.236 1.838 1.236 1.07 1.835 2.809 1.305 3.495.998.108-.776.417-1.305.76-1.605-2.665-.3-5.466-1.332-5.466-5.93 0-1.31.465-2.38 1.235-3.22-.135-.303-.54-1.523.105-3.176 0 0 1.005-.322 3.3 1.23.96-.267 1.98-.399 3-.405 1.02.006 2.04.138 3 .405 2.28-1.552 3.285-1.23 3.285-1.23.645 1.653.24 2.873.12 3.176.765.84 1.23 1.91 1.23 3.22 0 4.61-2.805 5.625-5.475 5.92.42.36.81 1.096.81 2.22 0 1.606-.015 2.896-.015 3.286 0 .315.21.69.825.57C20.565 22.092 24 17.592 24 12.297c0-6.627-5.373-12-12-12"
     id="path104" />
  <path
     style="fill:#3faff2;fill-opacity:1;stroke-width:0.10169491"
     d="M 7.3581837,23.299062 C 3.852114,21.768506 1.3711918,18.880731 0.41625105,15.218702 0.06213645,13.860735 -0.01868653,11.672017 0.23330539,10.264461 0.69287359,7.6974422 1.7897351,5.6361826 3.6876805,3.7728814 5.266766,2.2226197 6.9585985,1.2648417 9.1003549,0.70866538 10.471922,0.35249363 12.458316,0.27064758 13.896112,0.5110642 c 4.943229,0.826567 8.760001,4.5026749 9.835669,9.4731841 0.239184,1.1052377 0.242441,3.3512677 0.0066,4.5553177 -0.709279,3.621197 -3.116117,6.779433 -6.419743,8.42394 -1.147288,0.571108 -1.726943,0.747398 -2.019378,0.614156 l -0.248956,-0.113433 -0.03626,-2.269402 c -0.03539,-2.214804 -0.04285,-2.283523 -0.310334,-2.856279 -0.150739,-0.322781 -0.277894,-0.617335 -0.282565,-0.654566 -0.0047,-0.03723 0.392754,-0.148926 0.883167,-0.248213 2.849865,-0.576971 4.318461,-2.468086 4.327103,-5.57202 0.0035,-1.241519 -0.2136,-2.0333261 -0.799272,-2.9156784 L 18.479883,8.4173687 18.60194,7.7549393 c 0.125166,-0.6793153 0.0413,-1.5970014 -0.203598,-2.2278207 -0.0923,-0.2377404 -0.167156,-0.279661 -0.499409,-0.279661 -0.581551,0 -1.300334,0.2464131 -2.172416,0.7447477 L 14.947966,6.4370984 14.251948,6.2799433 c -0.947612,-0.2139633 -3.596962,-0.2139633 -4.5445748,0 L 9.0113565,6.4370984 8.2327969,5.9922053 C 7.3446495,5.4846905 6.6410959,5.2474576 6.0241235,5.2474576 c -0.417754,0 -0.4294557,0.00945 -0.5349367,0.4322034 C 5.2783283,6.5247449 5.2427013,7.1687152 5.369599,7.8412474 5.486928,8.4630676 5.4817181,8.5292162 5.2991253,8.7360147 4.5270231,9.6104725 4.1980411,10.981792 4.3644656,12.632023 c 0.2199841,2.181316 1.131721,3.574794 2.8499715,4.355833 0.4720389,0.214567 1.1120967,0.39713 2.1317516,0.608035 l 0.2648328,0.05478 -0.2902565,0.575437 c -0.1596411,0.31649 -0.2902565,0.659236 -0.2902565,0.761656 0,0.257812 -0.9866223,0.542725 -1.5920408,0.459743 C 6.6027513,19.332957 6.1237051,18.989804 5.4952925,18.055557 4.9572124,17.255604 4.0824709,16.80944 3.3919613,16.982748 c -0.1428668,0.03586 -0.2597579,0.12484 -0.2597579,0.19774 0,0.0729 0.2897719,0.388534 0.6439376,0.701407 0.4916727,0.434348 0.7317195,0.74888 1.0151733,1.330179 0.4741417,0.972357 0.7838303,1.335057 1.4304072,1.675263 0.4713269,0.247996 0.6242084,0.274015 1.6137625,0.274661 l 1.0931112,7.12e-4 1.119e-4,1.14049 c 9.8e-5,1.023551 -0.02006,1.151283 -0.1965951,1.245763 -0.3075255,0.164582 -0.5079767,0.128122 -1.3739256,-0.249903 z"
     id="path124"
     inkscape:connector-curvature="0" />
  <path
     style="fill:#3faff2;fill-opacity:1;stroke-width:0.10169491"
     d="m 8.0499455,23.630838 c -0.027742,-0.04489 -0.093041,-0.05529 -0.145108,-0.02311 -0.052067,0.03218 -0.094668,-0.0065 -0.094668,-0.08605 0,-0.09384 -0.089196,-0.134768 -0.2542373,-0.116651 -0.1398305,0.01535 -0.2542373,-0.01383 -0.2542373,-0.06483 0,-0.05101 -0.034322,-0.08561 -0.076271,-0.0769 -0.1178601,0.02448 -1.0888744,-0.439995 -1.1273298,-0.539244 -0.01876,-0.04842 -0.083741,-0.05736 -0.1444006,-0.01987 -0.068545,0.04236 -0.087384,0.0085 -0.04977,-0.08955 0.044983,-0.117223 0.010256,-0.144571 -0.1352604,-0.106517 -0.1112572,0.02909 -0.1957812,-4.19e-4 -0.1957812,-0.06836 0,-0.06576 -0.040967,-0.09424 -0.091039,-0.06329 -0.050071,0.03095 -0.1183922,-0.01502 -0.1518241,-0.102139 -0.033432,-0.08712 -0.1045752,-0.13134 -0.1580961,-0.09826 -0.053521,0.03308 -0.1476656,-0.03395 -0.2092104,-0.148945 -0.061545,-0.114998 -0.1525537,-0.183961 -0.202242,-0.153253 -0.049688,0.03071 -0.1311775,-0.01713 -0.1810873,-0.106317 -0.04991,-0.08918 -0.201451,-0.21867 -0.3367586,-0.287747 -0.1353076,-0.06908 -0.23974,-0.202513 -0.232072,-0.29652 0.00767,-0.09401 -0.019403,-0.150316 -0.060157,-0.125128 -0.096233,0.05948 -0.738778,-0.601974 -0.6606573,-0.680095 0.032678,-0.03268 -0.018692,-0.05255 -0.1141568,-0.04416 -0.1732025,0.01522 -0.563354,-0.52691 -0.4821891,-0.670022 0.023428,-0.04131 -0.028425,-0.04785 -0.1152282,-0.01454 -0.1030593,0.03955 -0.1578242,0.0027 -0.1578242,-0.106052 0,-0.09164 -0.068644,-0.192955 -0.1525424,-0.225149 -0.083898,-0.0322 -0.1525424,-0.122284 -0.1525424,-0.200199 0,-0.07791 -0.045763,-0.141662 -0.1016949,-0.141662 -0.055932,0 -0.1016949,-0.06864 -0.1016949,-0.152542 0,-0.0839 -0.048463,-0.152543 -0.1076966,-0.152543 -0.059233,0 -0.079414,-0.04576 -0.044846,-0.101694 0.034568,-0.05593 0.014387,-0.101695 -0.044846,-0.101695 -0.059233,0 -0.1076966,-0.06864 -0.1076966,-0.152543 0,-0.0839 -0.048464,-0.152542 -0.1076967,-0.152542 -0.059233,0 -0.079414,-0.04576 -0.044846,-0.101695 0.034568,-0.05593 0.011687,-0.101695 -0.050847,-0.101695 -0.062534,0 -0.085416,-0.04576 -0.050847,-0.101695 0.034568,-0.05593 0.011687,-0.101695 -0.050847,-0.101695 -0.062534,0 -0.085416,-0.04576 -0.050847,-0.101695 0.034568,-0.05593 0.011687,-0.101695 -0.050847,-0.101695 -0.062534,0 -0.085415,-0.04576 -0.050847,-0.101695 0.034568,-0.05593 0.00676,-0.101694 -0.061795,-0.101694 -0.068555,0 -0.0957474,-0.0289 -0.060427,-0.06422 0.03532,-0.03532 0.010344,-0.161168 -0.0555037,-0.279661 -0.0658472,-0.118494 -0.10999983,-0.249765 -0.0981169,-0.291714 0.011883,-0.04195 -0.0268582,-0.07627 -0.0860914,-0.07627 -0.0592332,0 -0.081368,-0.0426 -0.0491886,-0.09467 0.0321794,-0.05207 0.0112524,-0.123873 -0.0465046,-0.159569 -0.0577569,-0.0357 -0.0806383,-0.10434 -0.0508474,-0.152543 0.0297908,-0.0482 0.006909,-0.116846 -0.0508475,-0.152542 -0.0577569,-0.0357 -0.0806383,-0.10434 -0.0508475,-0.152542 0.0297908,-0.0482 0.009655,-0.11515 -0.0447472,-0.148773 -0.0544018,-0.03362 -0.0749098,-0.12368 -0.0455734,-0.200129 0.0293364,-0.07645 0.002234,-0.170584 -0.060227,-0.209188 -0.0812352,-0.05021 -0.08247,-0.107655 -0.004337,-0.201799 0.0803607,-0.09683 0.0686805,-0.147173 -0.0441949,-0.190487 -0.0853491,-0.03275 -0.12762467,-0.126105 -0.0952791,-0.210396 0.0319795,-0.08334 0.020468,-0.210918 -0.025581,-0.283511 -0.046049,-0.07259 -0.0945957,-0.257836 -0.10788155,-0.411649 -0.04441413,-0.514193 -0.02931959,-3.173388 0.0200596,-3.533899 0.0268137,-0.195762 0.0641048,-0.462557 0.0828691,-0.5928766 0.0187644,-0.1303196 0.0929866,-0.273328 0.16493828,-0.3177966 0.10464586,-0.064675 0.10521877,-0.096675 0.002863,-0.1599343 -0.0977327,-0.060402 -0.086849,-0.1091421 0.0460757,-0.206339 0.11692894,-0.085501 0.13704795,-0.1501149 0.0613151,-0.1969204 -0.0817353,-0.050515 -0.0799854,-0.109105 0.006366,-0.2131527 0.0654968,-0.078919 0.0849969,-0.1434887 0.0433336,-0.1434887 -0.0416633,0 -0.018782,-0.068644 0.0508475,-0.1525423 C 0.65945992,8.4686441 0.68234127,8.4 0.64067797,8.4 c -0.0416633,0 -0.018782,-0.068644 0.0508474,-0.1525424 0.0696294,-0.083898 0.0970592,-0.1525423 0.0609551,-0.1525423 -0.0361041,0 0.004216,-0.1066192 0.0895997,-0.2369315 0.0853839,-0.1303123 0.12457444,-0.2676004 0.0870901,-0.3050847 -0.0374843,-0.037484 -0.0147635,-0.068153 0.0504907,-0.068153 0.0652543,0 0.10720343,-0.057203 0.0932204,-0.1271187 -0.013983,-0.069915 0.030133,-0.1162269 0.098035,-0.1029148 0.076121,0.014923 0.098739,-0.040215 0.058989,-0.1438012 C 1.1892217,7.00489 1.2058325,6.9678724 1.274929,7.0105764 1.343246,7.0527984 1.365897,7.0074064 1.335162,6.8898769 1.308069,6.7862734 1.361368,6.6260407 1.4536047,6.5338043 1.5458417,6.4415683 1.5933745,6.3661017 1.5592344,6.3661017 c -0.03414,0 0.029653,-0.098456 0.1417618,-0.2187909 0.1121092,-0.120335 0.1750288,-0.2654 0.1398215,-0.3223666 -0.038109,-0.061661 0.00165,-0.078379 0.098243,-0.041312 C 2.057661,5.8291432 2.091499,5.7949152 2.0648266,5.6564167 2.0447568,5.552203 2.096556,5.4407591 2.1799358,5.4087633 2.2633155,5.3767675 2.3044717,5.3067992 2.271394,5.2532782 2.2383162,5.1997573 2.3040597,5.1062986 2.4174907,5.0455922 2.5309216,4.9848857 2.6237288,4.8734461 2.6237288,4.7979484 c 0,-0.1470744 0.5037765,-0.52763 0.6431522,-0.4858406 0.046107,0.013824 0.056801,-0.018599 0.023765,-0.072053 C 3.25761,4.1866018 3.277836,4.1136615 3.335593,4.0779658 3.39335,4.0422698 3.414038,3.9700768 3.381566,3.9175363 3.317058,3.8131598 3.7444651,3.6154665 3.8720111,3.6906854 c 0.043335,0.025556 0.06689,0.00874 0.052345,-0.037364 C 3.8684288,3.476036 4.3995574,2.8970476 4.57583,2.943144 4.672926,2.968535 4.748514,2.959681 4.7438026,2.923468 4.7175626,2.7217866 4.7757046,2.6033893 4.9009842,2.6033893 c 0.077914,0 0.1671632,-0.066455 0.1983313,-0.1476775 0.031562,-0.082249 0.1464231,-0.1303924 0.2592517,-0.1086636 0.1511966,0.029118 0.1867891,-0.00214 0.140319,-0.1232424 -0.041329,-0.1077014 -0.022261,-0.1375329 0.056713,-0.088724 0.065437,0.040442 0.1189769,0.025068 0.1189769,-0.034165 0,-0.059233 0.068644,-0.1076967 0.1525423,-0.1076967 0.083898,0 0.1525424,-0.048463 0.1525424,-0.1076966 0,-0.059233 0.045763,-0.079414 0.1016949,-0.044846 0.055932,0.034568 0.1016949,0.011687 0.1016949,-0.050847 0,-0.062534 0.045763,-0.085416 0.101695,-0.050847 0.055932,0.034568 0.1016949,0.011687 0.1016949,-0.050847 0,-0.062534 0.045763,-0.085416 0.1016949,-0.050848 0.055932,0.034568 0.1016949,0.011687 0.1016949,-0.050847 0,-0.062534 0.045763,-0.085416 0.1016949,-0.050847 0.055932,0.034568 0.1016949,0.011687 0.1016949,-0.050847 0,-0.062534 0.045763,-0.085416 0.101695,-0.050847 0.055932,0.034568 0.1016949,0.011687 0.1016949,-0.050848 0,-0.062534 0.045763,-0.085415 0.1016949,-0.050847 C 7.1542373,1.3667714 7.2,1.3438901 7.2,1.2813559 c 0,-0.062534 0.042601,-0.08737 0.094668,-0.05519 0.052067,0.032179 0.1238736,0.011252 0.1595693,-0.046505 0.035696,-0.057757 0.1075019,-0.078684 0.1595693,-0.046505 0.052067,0.032179 0.094668,0.00734 0.094668,-0.05519 0,-0.062534 0.042601,-0.0873698 0.094668,-0.05519 0.052067,0.032179 0.1238735,0.011252 0.1595693,-0.0465046 C 7.9984079,0.9185144 8.0670517,0.895633 8.1152542,0.9254238 8.1634572,0.9552146 8.2321009,0.9323328 8.2677966,0.8745763 8.3034926,0.8168194 8.3721364,0.793938 8.420339,0.8237288 8.468542,0.8535196 8.5354891,0.8333838 8.5691112,0.7789816 8.6027332,0.7245798 8.692792,0.7040718 8.7692414,0.7334082 8.8456914,0.7627446 8.938913,0.7371182 8.9764015,0.6764605 9.0138905,0.6158028 9.0871629,0.5925024 9.1392303,0.6246818 9.1912973,0.6568612 9.2911017,0.6464715 9.3610169,0.6015935 9.4309319,0.5567155 9.579661,0.510915 9.6915254,0.49981451 c 0.1118644,-0.0111004 0.3864406,-0.0437695 0.6101696,-0.0725978 0.834579,-0.10753878 3.143877,-0.0871104 3.182297,0.0281511 0.02682,0.0804675 0.09492,0.0817657 0.239187,0.004559 0.145869,-0.0780667 0.241746,-0.0746931 0.346434,0.0121897 0.07961,0.066071 0.212507,0.0941267 0.295327,0.0623459 0.08282,-0.0317808 0.175828,-0.0169311 0.206687,0.0329992 0.03086,0.0499303 0.13529,0.0903971 0.23207,0.0899262 0.166043,-8.0848e-4 0.552765,0.0757676 0.608167,0.12042437 0.01398,0.0112709 0.07119,0.0319333 0.127119,0.0459164 0.05593,0.013983 0.124576,0.0368644 0.152542,0.0508475 0.02797,0.013983 0.09661,0.0368644 0.152543,0.0508475 0.05593,0.013983 0.124576,0.0368644 0.152542,0.0508475 0.02797,0.013983 0.09661,0.0368644 0.152543,0.0508474 0.05593,0.013983 0.136016,0.036563 0.177966,0.050178 0.04195,0.013615 0.110593,0.019335 0.152542,0.012712 0.04195,-0.00662 0.07627,0.03372 0.07627,0.089652 0,0.055932 0.03432,0.093709 0.07627,0.083948 0.166997,-0.038857 0.625374,0.2572964 0.562036,0.3631262 -0.03695,0.061736 0.01882,0.043604 0.123924,-0.040294 0.16987,-0.1355932 0.184781,-0.1355932 0.13419,0 -0.04067,0.1090103 0.0183,0.1571238 0.20665,0.1685965 0.14496,0.00883 0.280319,0.066318 0.300797,0.1277522 0.02048,0.061434 0.07909,0.085831 0.130242,0.054215 0.05115,-0.031616 0.09301,-0.00902 0.09301,0.050214 0,0.059233 0.06864,0.1076967 0.152542,0.1076967 0.0839,0 0.152543,0.048463 0.152543,0.1076966 0,0.059233 0.04609,0.079214 0.102412,0.044402 0.05633,-0.034812 0.129868,0.00825 0.163423,0.095693 0.03355,0.087443 0.119862,0.158988 0.191792,0.158988 0.07193,0 0.158236,0.071545 0.191791,0.158988 0.03355,0.087443 0.10209,0.1335991 0.152299,0.1025681 0.05021,-0.031031 0.165994,0.057594 0.2573,0.1969442 0.09131,0.1393503 0.223591,0.2533641 0.293968,0.2533641 0.07038,0 0.399668,0.2745763 0.73176,0.6101695 0.332092,0.3355932 0.56531,0.6101695 0.518263,0.6101695 -0.04705,0 -0.03457,0.061414 0.02773,0.1364755 0.06229,0.075062 0.08074,0.1690057 0.04097,0.2087647 -0.03976,0.039759 0.0091,0.041045 0.108645,0.00286 0.130735,-0.050168 0.196137,-0.011289 0.235735,0.1401328 0.03014,0.1152598 0.116747,0.2333339 0.192457,0.2623869 0.07571,0.029053 0.120101,0.1439859 0.09864,0.2554062 -0.02909,0.1510434 0.0022,0.1867748 0.122907,0.140448 0.124926,-0.047939 0.149197,-0.013486 0.106235,0.1507996 -0.04245,0.1623342 -0.01821,0.1985524 0.102032,0.1524133 0.09918,-0.038059 0.132036,-0.018971 0.08852,0.051429 -0.03805,0.061572 -0.01956,0.1426222 0.0411,0.1801107 0.06066,0.037488 0.08662,0.1298455 0.05769,0.2052378 -0.03562,0.092833 3.05e-4,0.1167586 0.111444,0.074126 0.109264,-0.041929 0.139491,-0.023219 0.09051,0.056027 -0.04044,0.065437 -0.02237,0.1189768 0.04017,0.1189768 0.06253,0 0.08542,0.045763 0.05085,0.1016949 -0.03457,0.055932 -0.01169,0.101695 0.05085,0.101695 0.06253,0 0.08542,0.045763 0.05085,0.1016949 -0.03457,0.055932 -0.01169,0.1016949 0.05085,0.1016949 0.06253,0 0.08542,0.045763 0.05085,0.1016949 -0.03457,0.055932 -0.01169,0.1016949 0.05085,0.1016949 0.06253,0 0.08542,0.045763 0.05085,0.1016949 -0.03457,0.055932 -0.02413,0.1016949 0.0232,0.1016949 0.04733,0 0.0935,0.098848 0.102602,0.2196634 0.0091,0.1208148 0.07604,0.2574022 0.148761,0.3035275 0.07272,0.046125 0.09229,0.084565 0.04349,0.085421 -0.0488,8.565e-4 -0.03175,0.070201 0.03788,0.1540996 0.06963,0.083898 0.09251,0.1525424 0.05085,0.1525424 -0.04166,0 -0.01878,0.068644 0.05085,0.1525424 0.06963,0.083898 0.09251,0.1525423 0.05085,0.1525423 -0.04166,0 -0.01878,0.068644 0.05085,0.1525424 0.06963,0.083898 0.09251,0.1525424 0.05085,0.1525424 -0.04166,0 -0.02216,0.06457 0.04333,0.1434887 0.08635,0.1040476 0.0881,0.1626374 0.0064,0.2131526 -0.07573,0.046805 -0.05561,0.1114199 0.06132,0.1969204 0.122811,0.089801 0.139338,0.1486997 0.05615,0.200111 -0.08517,0.052641 -0.07353,0.1172071 0.04198,0.2327143 0.106471,0.1064709 0.125929,0.1937899 0.05826,0.2614569 -0.06767,0.06767 -0.05197,0.177345 0.04701,0.328404 0.10989,0.167713 0.122737,0.294858 0.04931,0.487994 -0.07143,0.187863 -0.06519,0.272558 0.02221,0.301693 0.166868,0.05562 0.170748,1.922898 0.0041,1.978549 -0.08249,0.02755 -0.09123,0.134359 -0.0288,0.352046 0.0558,0.194551 0.05074,0.385156 -0.0134,0.505001 -0.05666,0.105876 -0.07409,0.239325 -0.03872,0.29655 0.03537,0.05723 0.02084,0.159247 -0.03228,0.226712 -0.05312,0.06747 -0.100144,0.191308 -0.10449,0.275207 -0.0167,0.322299 -0.08992,0.527793 -0.215802,0.60559 -0.09372,0.05792 -0.09843,0.100866 -0.01661,0.151437 0.06282,0.03882 0.07984,0.124627 0.03784,0.190678 -0.042,0.06605 -0.08279,0.154413 -0.09064,0.196362 -0.0079,0.04195 -0.02571,0.09915 -0.03969,0.127119 -0.01398,0.02797 -0.03322,0.108051 -0.04276,0.177966 -0.0095,0.06991 -0.06462,0.118292 -0.122408,0.107503 -0.05779,-0.01079 -0.09731,0.08074 -0.08781,0.20339 0.01993,0.257439 -0.156608,0.589207 -0.274686,0.516231 -0.0441,-0.02725 -0.05004,0.02898 -0.01321,0.124955 0.05064,0.131959 0.03176,0.153282 -0.07744,0.08746 -0.123258,-0.07431 -0.123966,-0.06186 -0.0048,0.08501 0.09845,0.121367 0.104171,0.172063 0.01942,0.172063 -0.06608,0 -0.08706,0.05354 -0.04662,0.118977 0.04683,0.07578 0.02132,0.09895 -0.07027,0.06382 -0.09917,-0.03804 -0.148783,0.02665 -0.159855,0.208408 -0.0088,0.14496 -0.06632,0.280319 -0.127752,0.300798 -0.06143,0.02048 -0.08583,0.07909 -0.05422,0.130241 0.03162,0.05115 0.009,0.09301 -0.05021,0.09301 -0.05923,0 -0.107697,0.07354 -0.107697,0.163422 0,0.100931 -0.05635,0.141799 -0.147363,0.106874 -0.101683,-0.03902 -0.128613,-0.0077 -0.08688,0.101078 0.03327,0.08669 -0.0034,0.197102 -0.08145,0.245349 -0.07807,0.04825 -0.143042,0.146594 -0.144391,0.218551 -0.0014,0.07196 -0.0722,0.126011 -0.157433,0.120125 -0.08824,-0.0061 -0.161862,0.08065 -0.170961,0.201425 -0.01859,0.246749 -0.309186,0.492808 -0.47227,0.399885 -0.06168,-0.03514 -0.07879,-0.02702 -0.03803,0.01804 0.08704,0.09623 -1.091221,1.391432 -1.362971,1.498246 -0.10214,0.04015 -0.185709,0.120231 -0.185709,0.177966 0,0.05773 -0.07008,0.104972 -0.155734,0.104972 -0.08565,0 -0.181975,0.06838 -0.214046,0.151958 -0.03207,0.08358 -0.0996,0.12644 -0.150069,0.09525 -0.05047,-0.03119 -0.11911,0.01457 -0.152543,0.101695 -0.03343,0.08712 -0.101753,0.133085 -0.151823,0.102139 -0.05007,-0.03095 -0.09103,-0.0078 -0.09103,0.05143 0,0.05923 -0.06864,0.107697 -0.152543,0.107697 -0.0839,0 -0.152542,0.04846 -0.152542,0.107697 0,0.05923 -0.04185,0.08183 -0.09301,0.05021 -0.05116,-0.03162 -0.109764,-0.0072 -0.130242,0.05421 -0.02048,0.06143 -0.157283,0.118923 -0.304012,0.127752 -0.146728,0.0088 -0.240782,0.05815 -0.209008,0.109608 0.03177,0.05145 -0.01783,0.06454 -0.110233,0.02908 -0.103587,-0.03975 -0.158725,-0.01713 -0.143801,0.05899 0.01331,0.0679 -0.033,0.112017 -0.102915,0.09803 -0.06992,-0.01398 -0.127119,0.02304 -0.127119,0.08227 0,0.05923 -0.04576,0.07941 -0.101695,0.04484 -0.05593,-0.03457 -0.101695,-0.0068 -0.101695,0.0618 0,0.06856 -0.03011,0.09454 -0.06691,0.05773 -0.0368,-0.0368 -0.128329,-0.01594 -0.20339,0.04635 -0.10239,0.08498 -0.136476,0.0799 -0.136476,-0.02032 0,-0.08134 -0.0584,-0.05638 -0.149308,0.06382 -0.107656,0.142335 -0.150211,0.156519 -0.152542,0.05085 -0.0024,-0.110068 -0.03656,-0.100985 -0.137075,0.03648 -0.144401,0.197481 -0.544204,0.179086 -0.501753,-0.02308 0.01398,-0.06659 -0.0089,-0.115659 -0.05085,-0.109036 -0.298767,0.04717 -0.315439,-0.05349 -0.334617,-2.020517 -0.01892,-1.940445 -0.04281,-2.590542 -0.09718,-2.644068 -0.0142,-0.01398 -0.03727,-0.07119 -0.05125,-0.127119 -0.01398,-0.05593 -0.03656,-0.136017 -0.05018,-0.177966 -0.01361,-0.04195 -0.01933,-0.110593 -0.01271,-0.152542 0.0066,-0.04195 -0.03642,-0.07627 -0.09565,-0.07627 -0.05923,0 -0.08238,-0.04097 -0.05143,-0.09104 0.03095,-0.05007 -0.01502,-0.118392 -0.10214,-0.151823 -0.08712,-0.03343 -0.131659,-0.104059 -0.09897,-0.156949 0.03269,-0.05289 -0.02162,-0.143346 -0.120673,-0.201015 -0.16726,-0.09737 -0.165599,-0.105663 0.02328,-0.116207 0.111864,-0.0062 0.340678,-0.02963 0.508474,-0.05196 0.167797,-0.02233 0.373729,-0.04773 0.457627,-0.05645 0.0839,-0.0087 0.209746,-0.06097 0.279661,-0.11613 0.08769,-0.06918 0.127119,-0.05999 0.127119,0.02962 0,0.08736 0.06661,0.06963 0.20339,-0.05416 0.111864,-0.101236 0.20339,-0.148488 0.20339,-0.105004 0,0.04348 0.06864,0.02209 0.152542,-0.04754 0.0839,-0.06963 0.152542,-0.09285 0.152542,-0.0516 0,0.04125 0.114407,3.2e-5 0.254238,-0.09159 0.13983,-0.09162 0.254237,-0.139378 0.254237,-0.106127 0,0.03325 0.07191,-0.01146 0.159806,-0.09935 0.08789,-0.08789 0.220286,-0.159807 0.294205,-0.159807 0.07392,0 0.160903,-0.06907 0.193296,-0.153486 0.03239,-0.08442 0.09449,-0.144435 0.137998,-0.133375 0.107175,0.02725 0.943509,-0.796586 0.943509,-0.929404 0,-0.05817 0.04576,-0.105769 0.101694,-0.105769 0.05593,0 0.101695,-0.06864 0.101695,-0.152542 0,-0.0839 0.04846,-0.152543 0.107697,-0.152543 0.05923,0 0.07941,-0.04576 0.04485,-0.101694 -0.03457,-0.05593 -0.01169,-0.101695 0.05085,-0.101695 0.06253,0 0.08737,-0.0426 0.05519,-0.09467 -0.03218,-0.05207 -0.01125,-0.123874 0.0465,-0.15957 0.05776,-0.0357 0.08165,-0.102706 0.05309,-0.148913 -0.02856,-0.04621 0.02662,-0.11415 0.122609,-0.150986 0.149594,-0.05741 0.153143,-0.0805 0.02484,-0.161641 -0.117223,-0.07414 -0.11976,-0.09501 -0.01169,-0.09623 0.07929,-9.15e-4 0.113628,-0.06506 0.08071,-0.150842 -0.03151,-0.08211 -0.01422,-0.1759 0.03841,-0.20843 0.05263,-0.03253 0.09631,-0.159843 0.09706,-0.282918 0.0032,-0.526993 0.109368,-1.963555 0.154068,-2.084988 0.02839,-0.07712 0.0022,-0.103645 -0.06269,-0.06354 -0.07475,0.0462 -0.08834,-0.0039 -0.04128,-0.15214 0.04036,-0.127158 0.01724,-0.284752 -0.05444,-0.371125 -0.06852,-0.08257 -0.09558,-0.179125 -0.06013,-0.214577 0.03545,-0.03545 0.01349,-0.125871 -0.04881,-0.200932 -0.08536,-0.102849 -0.07888,-0.137237 0.02631,-0.139568 0.09361,-0.0021 0.08026,-0.03762 -0.04053,-0.107945 -0.09906,-0.057669 -0.15356,-0.1478023 -0.121117,-0.2002969 0.03244,-0.052495 0.0078,-0.095445 -0.05471,-0.095445 -0.06253,0 -0.08542,-0.045763 -0.05085,-0.1016949 0.03457,-0.055932 0.0029,-0.1023957 -0.07027,-0.1032522 -0.09673,-0.00113 -0.09142,-0.028505 0.01942,-0.1001376 0.129336,-0.083583 0.124555,-0.098817 -0.03143,-0.1001377 -0.101182,-8.542e-4 -0.155484,-0.047643 -0.120672,-0.1039704 0.03481,-0.056327 -0.008,-0.1297666 -0.09511,-0.1631985 -0.08712,-0.033432 -0.134504,-0.099457 -0.105293,-0.1467218 0.02921,-0.047265 -0.0392,-0.1353417 -0.152032,-0.1957258 -0.218418,-0.1168941 -0.224494,-0.3178636 -0.02082,-0.6885509 0.07635,-0.1389634 0.08537,-0.2288136 0.02297,-0.2288136 -0.06876,0 -0.06815,-0.091017 0.0018,-0.2750983 0.05985,-0.1574299 0.07236,-0.4510427 0.02924,-0.6864406 -0.04145,-0.2262384 -0.06449,-0.4524924 -0.0512,-0.5027868 0.01328,-0.050294 -0.008,-0.1647011 -0.04735,-0.2542373 -0.0829,-0.1887413 -0.105191,-0.289243 -0.126517,-0.5703635 -0.0133,-0.1753041 -0.08381,-0.2026436 -0.49854,-0.1933124 -0.265678,0.00598 -0.517373,0.023494 -0.559322,0.038926 -0.04195,0.015432 -0.110593,0.034479 -0.152543,0.042327 -0.04195,0.00785 -0.133474,0.050591 -0.203389,0.094985 -0.06992,0.044394 -0.127119,0.051401 -0.127119,0.015572 0,-0.035829 -0.153148,0.029508 -0.340331,0.1451927 -0.187182,0.1156849 -0.370233,0.1804342 -0.40678,0.1438874 -0.03655,-0.036547 -0.06645,-0.013059 -0.06645,0.052195 0,0.065254 -0.06864,0.1186441 -0.152543,0.1186441 -0.0839,0 -0.152542,0.048464 -0.152542,0.1076967 0,0.059233 -0.04576,0.079414 -0.101695,0.044846 -0.05593,-0.034568 -0.101695,-0.014387 -0.101695,0.044846 0,0.059233 -0.06864,0.1076967 -0.152542,0.1076967 -0.0839,0 -0.152543,0.048464 -0.152543,0.1076966 0,0.059233 -0.04185,0.081829 -0.09301,0.050214 -0.05115,-0.031616 -0.112356,5.8e-6 -0.136005,0.07027 -0.03392,0.1008032 -0.07772,0.09909 -0.20762,-0.00812 C 14.706766,6.4097 14.588075,6.376124 14.533557,6.409818 14.479037,6.443512 14.406123,6.42527 14.371521,6.369282 14.336921,6.313293 14.207908,6.2671893 14.084833,6.2668286 c -0.123076,-3.607e-4 -0.429706,-0.031228 -0.681401,-0.068594 -0.606391,-0.090024 -2.160442,-0.091127 -2.79661,-0.00199 -0.279661,0.039186 -0.6091732,0.071245 -0.7322486,0.071242 -0.1230754,-3.2e-6 -0.2520851,0.045803 -0.2866879,0.1017917 -0.034603,0.055989 -0.1075196,0.07423 -0.162037,0.040536 -0.054518,-0.033694 -0.16925,-0.00306 -0.2549611,0.068073 C 9.0437108,6.5834389 8.9979903,6.5803686 8.92262,6.4612577 8.8718073,6.3809557 8.8279107,6.3610169 8.8250722,6.4169492 8.8222338,6.4728814 8.7545106,6.4042373 8.6745763,6.2644068 8.5946419,6.1245763 8.5276195,6.0706417 8.5256375,6.1445521 8.5229253,6.2457098 8.4825232,6.2394239 8.3622276,6.1191284 8.2743342,6.0312349 8.137046,5.959322 8.0571428,5.959322 c -0.079903,0 -0.1452784,-0.048464 -0.1452784,-0.1076966 0,-0.059233 -0.045763,-0.079414 -0.1016949,-0.044846 -0.055932,0.034568 -0.1016949,0.014387 -0.1016949,-0.044846 0,-0.059233 -0.034322,-0.097974 -0.076271,-0.086091 -0.041949,0.011883 -0.190678,-0.041613 -0.3305085,-0.1188793 -0.1398305,-0.077266 -0.265678,-0.1327517 -0.279661,-0.1233002 -0.013983,0.00945 -0.036864,0.013683 -0.050848,0.0094 C 6.3111394,5.2410587 5.49709,5.2459382 5.6239106,5.4511429 c 0.029691,0.04804 0.00435,0.1180187 -0.056304,0.1555072 -0.060658,0.037489 -0.087006,0.1288302 -0.058551,0.2029816 0.028455,0.074151 -0.016354,0.1913303 -0.099576,0.2603977 -0.099286,0.0824 -0.1142719,0.1484687 -0.043585,0.1921558 0.075445,0.046628 0.07364,0.1643595 -0.00603,0.3928866 -0.068718,0.1971236 -0.082554,0.4762743 -0.034949,0.7051099 0.043342,0.2083411 0.068912,0.4196889 0.056823,0.4696616 -0.012089,0.049973 0.026786,0.2307486 0.086388,0.401724 0.087703,0.2515854 0.078934,0.3273364 -0.045985,0.3972445 -0.084894,0.047509 -0.1543522,0.1496662 -0.1543522,0.227016 0,0.07735 -0.097572,0.1716044 -0.2168266,0.2094543 -0.1703282,0.05406 -0.1866845,0.087908 -0.076271,0.1578382 0.1100225,0.069682 0.1116376,0.089358 0.00744,0.090577 -0.073216,8.565e-4 -0.1048374,0.04732 -0.070269,0.1032522 0.034568,0.055932 0.011687,0.1016949 -0.050847,0.1016949 -0.062534,0 -0.085415,0.045763 -0.050847,0.1016949 0.034568,0.055932 0.00676,0.1016949 -0.061795,0.1016949 -0.068555,0 -0.094534,0.030112 -0.057732,0.066914 0.036803,0.036803 0.015945,0.1283283 -0.04635,0.2033899 -0.062295,0.075062 -0.079176,0.1364759 -0.037513,0.1364759 0.041663,0 0.020446,0.06664 -0.04715,0.148087 -0.067596,0.08145 -0.095334,0.192693 -0.061641,0.247211 0.033694,0.05452 0.020674,0.124206 -0.028932,0.154865 -0.073291,0.0453 -0.077793,0.965462 -0.012958,2.648539 0.00421,0.109288 0.056879,0.258017 0.1170431,0.330509 0.060164,0.07249 0.075301,0.131806 0.033637,0.131806 -0.041663,0 -0.018782,0.06864 0.050847,0.152542 0.1020534,0.122966 0.099538,0.15317 -0.012972,0.155776 -0.093409,0.0022 -0.074281,0.05262 0.057832,0.152543 C 4.8110594,14.332811 4.8689974,14.4 4.8312386,14.4 c -0.089103,0 0.342394,0.84247 0.4789649,0.935149 0.057335,0.03891 0.071413,0.103574 0.031284,0.143702 -0.040129,0.04013 0.064581,0.156606 0.2326882,0.258838 0.168107,0.102232 0.3965852,0.335023 0.5077293,0.517314 0.1111441,0.182291 0.2022512,0.269431 0.2024603,0.193645 2.543e-4,-0.09163 0.077029,-0.06402 0.2291937,0.08243 0.1258475,0.121124 0.2636151,0.216526 0.3061503,0.212003 0.042535,-0.0045 0.2255861,0.07087 0.4067797,0.167542 0.1811936,0.09667 0.3523243,0.178383 0.3802904,0.181584 0.027966,0.0032 0.1080508,0.04214 0.1779661,0.08653 0.069915,0.04439 0.1271186,0.04953 0.1271186,0.01141 0,-0.03812 0.074187,-0.0077 0.1648607,0.06752 0.090673,0.07525 0.2851649,0.139411 0.4322034,0.142573 0.1470385,0.0032 0.3249556,0.04168 0.3953714,0.08558 0.070416,0.04391 0.2077038,0.05504 0.3050847,0.02474 0.097381,-0.0303 0.231723,-0.02068 0.2985382,0.02138 0.148226,0.0933 0.1094828,0.452071 -0.05473,0.506808 -0.065377,0.02179 -0.093,0.08148 -0.061384,0.132632 0.031616,0.05115 0.00139,0.09301 -0.067163,0.09301 -0.068555,0 -0.094534,0.03011 -0.057732,0.06691 0.036803,0.0368 0.015945,0.128329 -0.04635,0.20339 -0.062295,0.07506 -0.08571,0.136475 -0.052031,0.136475 0.1121684,0 -0.3060786,0.660806 -0.4264266,0.673729 -0.065108,0.007 -0.1298181,0.02225 -0.1438011,0.0339 -0.19174,0.159784 -1.3952207,0.159767 -1.8050848,-2.4e-5 -0.027966,-0.0109 -0.08517,-0.0144 -0.1271186,-0.0078 -0.041949,0.0066 -0.076271,-0.03372 -0.076271,-0.08965 0,-0.05593 -0.041186,-0.101695 -0.091525,-0.101695 -0.1191749,0 -0.8237288,-0.704554 -0.8237288,-0.823729 0,-0.05034 -0.045763,-0.09153 -0.1016949,-0.09153 -0.055932,0 -0.101695,-0.04119 -0.101695,-0.09153 0,-0.123943 -0.7431631,-0.872897 -0.838983,-0.845521 -0.041949,0.01199 -0.076271,-0.02667 -0.076271,-0.0859 0,-0.05923 -0.045763,-0.07941 -0.1016949,-0.04485 -0.055932,0.03457 -0.1016949,0.01169 -0.1016949,-0.05085 0,-0.06254 -0.042601,-0.08737 -0.094668,-0.05519 -0.052067,0.03218 -0.1215066,0.01508 -0.1543093,-0.03799 -0.086704,-0.140291 -0.6902981,-0.100713 -0.8465165,0.05551 -0.1101085,0.110108 -0.1046764,0.17731 0.03108,0.384501 0.09564,0.145965 0.2251556,0.227801 0.3093765,0.195482 0.079677,-0.03058 0.1448675,-0.0049 0.1448675,0.05698 0,0.06192 0.063041,0.112575 0.1400903,0.112575 0.1838665,0 0.375969,0.237969 0.3948919,0.489176 0.00984,0.13066 0.066599,0.180577 0.1631806,0.143515 0.1095022,-0.04202 0.1335801,-0.0013 0.092406,0.156107 -0.042451,0.162334 -0.018205,0.198552 0.102031,0.152413 0.1037367,-0.03981 0.1325483,-0.0198 0.084183,0.05846 -0.040443,0.06544 -0.022367,0.118977 0.040167,0.118977 0.062534,0 0.085415,0.04576 0.050847,0.101695 -0.034568,0.05593 -0.00676,0.101695 0.061795,0.101695 0.068555,0 0.093977,0.03067 0.056492,0.06815 -0.037484,0.03748 0.00255,0.176065 0.088972,0.307958 0.086419,0.131892 0.132857,0.279071 0.1031954,0.327065 -0.029661,0.04799 0.038394,0.111403 0.151235,0.140912 0.1128408,0.02951 0.1924109,0.107614 0.1768223,0.173567 -0.015588,0.06595 0.063183,0.172861 0.175047,0.237571 0.1118644,0.06471 0.2405245,0.175821 0.2859112,0.246913 0.045387,0.07109 0.1254716,0.102713 0.1779661,0.07027 0.052495,-0.03244 0.096145,0.0238 0.097002,0.124979 0.00132,0.15598 0.016554,0.160761 0.1001377,0.03143 0.06572,-0.101695 0.0991,-0.11017 0.1001376,-0.02542 8.543e-4,0.06992 0.035879,0.121699 0.077829,0.115076 0.041949,-0.0066 0.099152,-0.0031 0.1271186,0.0078 0.357453,0.139359 2.0209676,0.209152 2.0958844,0.08794 0.028442,-0.04602 0.1200758,-0.08367 0.2036313,-0.08367 0.1271387,0 0.149037,0.194751 0.134251,1.193949 -0.015962,1.078676 -0.037866,1.208096 -0.226869,1.340479 -0.2320728,0.16255 -0.6684742,0.212947 -0.7467827,0.08624 z m 0.8466424,-1.622787 c -0.032464,-0.08112 -0.056561,-0.05703 -0.061441,0.06144 -0.00442,0.107203 0.01962,0.167267 0.053412,0.133474 0.033792,-0.03379 0.037405,-0.121505 0.00803,-0.194915 z m 6.305e-4,-0.667373 c -0.025579,-0.09788 -0.046508,-0.0178 -0.046508,0.177966 0,0.195763 0.020928,0.275848 0.046508,0.177966 0.025579,-0.09788 0.025579,-0.258051 0,-0.355932 z"
     id="path128"
     inkscape:connector-curvature="0" />
</svg>
