<?xml version="1.0" encoding="UTF-8" standalone="no"?>
<svg
   xmlns:dc="http://purl.org/dc/elements/1.1/"
   xmlns:cc="http://creativecommons.org/ns#"
   xmlns:rdf="http://www.w3.org/1999/02/22-rdf-syntax-ns#"
   xmlns:svg="http://www.w3.org/2000/svg"
   xmlns="http://www.w3.org/2000/svg"
   xmlns:sodipodi="http://sodipodi.sourceforge.net/DTD/sodipodi-0.dtd"
   xmlns:inkscape="http://www.inkscape.org/namespaces/inkscape"
   viewBox="0 0 16 16"
   fill-rule="evenodd"
   clip-rule="evenodd"
   stroke-linejoin="round"
   stroke-miterlimit="1.414"
   version="1.1"
   id="svg116"
   sodipodi:docname="linkedin.svg"
   inkscape:version="0.92.1 r15371">
  <metadata
     id="metadata122">
    <rdf:RDF>
      <cc:Work
         rdf:about="">
        <dc:format>image/svg+xml</dc:format>
        <dc:type
           rdf:resource="http://purl.org/dc/dcmitype/StillImage" />
      </cc:Work>
    </rdf:RDF>
  </metadata>
  <defs
     id="defs120" />
  <sodipodi:namedview
     pagecolor="#ffffff"
     bordercolor="#666666"
     borderopacity="1"
     objecttolerance="10"
     gridtolerance="10"
     guidetolerance="10"
     inkscape:pageopacity="0"
     inkscape:pageshadow="2"
     inkscape:window-width="636"
     inkscape:window-height="985"
     id="namedview118"
     showgrid="false"
     inkscape:zoom="14.75"
     inkscape:cx="8"
     inkscape:cy="8"
     inkscape:window-x="1920"
     inkscape:window-y="18"
     inkscape:window-maximized="0"
     inkscape:current-layer="svg116" />
  <path
     d="M13.632 13.635h-2.37V9.922c0-.886-.018-2.025-1.234-2.025-1.235 0-1.424.964-1.424 1.96v3.778h-2.37V6H8.51v1.04h.03c.318-.6 1.092-1.233 2.247-1.233 2.4 0 2.845 1.58 2.845 3.637v4.188zM3.558 4.955c-.762 0-1.376-.617-1.376-1.377 0-.758.614-1.375 1.376-1.375.76 0 1.376.617 1.376 1.375 0 .76-.617 1.377-1.376 1.377zm1.188 8.68H2.37V6h2.376v7.635zM14.816 0H1.18C.528 0 0 .516 0 1.153v13.694C0 15.484.528 16 1.18 16h13.635c.652 0 1.185-.516 1.185-1.153V1.153C16 .516 15.467 0 14.815 0z"
     fill-rule="nonzero"
     id="path114" />
  <path
     style="fill:#3faff2;fill-opacity:1;stroke-width:0.06779661"
     d="M 0.64456163,15.815253 C 0.45871871,15.717213 0.28832471,15.557029 0.19382377,15.391524 L 0.04188483,15.125424 0.05823055,7.9389831 0.07457627,0.75254237 0.23282812,0.53066852 C 0.31986664,0.4086379 0.50932921,0.24846841 0.65385607,0.17473632 0.91067641,0.04371635 1.0775154,0.04067797 8.0150712,0.04067797 h 7.0984398 l 0.28758,0.16853326 c 0.191754,0.11237562 0.334932,0.26634812 0.429685,0.46208301 0.141476,0.29224895 0.142105,0.32470861 0.142105,7.32516946 0,5.8199453 -0.01608,7.0692133 -0.09334,7.2497813 -0.112884,0.26383 -0.414058,0.556397 -0.67378,0.654527 -0.130376,0.04926 -2.42038,0.07211 -7.2266252,0.07211 H 0.94336047 Z M 4.7864407,9.8033898 V 5.9389831 h -1.220339 -1.220339 v 3.8644067 3.8644072 h 1.220339 1.220339 z m 3.8644068,1.6394242 c 0,-1.7963611 0.019913,-2.2920364 0.1033667,-2.5730567 0.1473933,-0.4963275 0.3771024,-0.739499 0.8202543,-0.8683268 0.6690465,-0.1944969 1.2167265,0.016439 1.4708215,0.5664793 0.141743,0.3068305 0.148805,0.4201939 0.168837,2.7100562 l 0.02091,2.389831 h 1.216382 1.216382 v -2.391609 c 0,-1.3153853 -0.03172,-2.6446063 -0.0705,-2.9538239 C 13.372977,6.5333476 12.465396,5.7498459 10.69323,5.8153228 9.859238,5.8461366 9.3579119,6.0568292 8.8561105,6.5874105 L 8.5152542,6.9478156 V 6.4433993 5.9389831 H 7.3627119 6.2101695 v 3.8644067 3.8644072 h 1.220339 1.220339 z M 3.9797137,4.912671 C 4.5836172,4.7104764 4.9431203,4.2030986 4.9440688,3.5516469 4.9463382,1.9930671 2.717071,1.6664692 2.2195324,3.1524897 1.8652749,4.2105662 2.9216372,5.2669285 3.9797137,4.912671 Z"
     id="path126"
     inkscape:connector-curvature="0" />
  <path
     style="fill:#3faff2;fill-opacity:1;stroke-width:0.06779661"
     d="m 0.85084325,15.942373 c -0.0354214,-0.03542 -0.0644026,-0.03832 -0.0644026,-0.0064 0,0.03188 -0.0610169,0.0027 -0.13559322,-0.06475 -0.0745763,-0.06749 -0.13559322,-0.104114 -0.13559322,-0.08138 0,0.02273 -0.0762712,-0.03495 -0.16949153,-0.128168 -0.0932203,-0.09322 -0.16949152,-0.198613 -0.16949152,-0.234206 0,-0.03559 -0.0305085,-0.06471 -0.0677966,-0.06471 -0.03728814,0 -0.06418377,-0.02288 -0.05976806,-0.05085 0.0044157,-0.02797 0.0041402,-0.08136 -6.1221e-4,-0.118644 -0.01100602,-0.08635 -0.0105682,-14.36125851 4.4183e-4,-14.40677932 0.0045094,-0.0186441 0.0045861,-0.0567797 1.7038e-4,-0.0847458 -0.0044157,-0.0279661 0.02756467,-0.0508475 0.07106749,-0.0508475 0.0435028,0 0.0624728,-0.0166232 0.0421556,-0.0369405 C 0.11609765,0.56807505 0.52993512,0.14039609 0.6,0.16118458 c 0.0279661,0.008298 0.0508475,-0.0154219 0.0508475,-0.05271 0,-0.03728814 0.0228813,-0.06418377 0.0508475,-0.05976806 0.0279661,0.0044157 0.0813559,0.0041389 0.11864406,-6.1492e-4 0.0372881,-0.004754 3.26116464,-0.0085222 7.16417024,-0.0083738 4.5901407,1.7424e-4 7.1596707,0.0243355 7.2755997,0.06841163 0.09857,0.037478 0.200122,0.0686689 0.22566,0.0693131 0.136458,0.003442 0.420116,0.4329105 0.480598,0.72764223 0.0057,0.0279661 0.0032,1.43898314 -0.0055,3.13559314 -0.01767,3.4112495 -0.01769,3.3315552 0.0019,7.8305081 0.0076,1.752543 0.01072,3.201695 0.0068,3.220339 -0.0039,0.01864 -0.01796,0.09186 -0.03128,0.162705 -0.01331,0.07084 -0.06437,0.154274 -0.113457,0.185403 -0.04909,0.03113 -0.06164,0.05706 -0.0279,0.05763 0.03374,5.42e-4 0.0061,0.06205 -0.06136,0.136631 -0.06749,0.07458 -0.163744,0.135594 -0.213897,0.135594 -0.05015,0 -0.09119,0.03231 -0.09119,0.0718 0,0.03949 -0.03051,0.05294 -0.0678,0.0299 -0.03729,-0.02304 -0.0678,-0.01468 -0.0678,0.0186 0,0.07909 0.762133,0.06918 -7.2745801,0.09456 -4.4287026,0.01398 -7.12934445,-0.0018 -7.16948757,-0.04197 z M 4.770056,9.820339 4.7875696,6.0067797 H 3.5666662 2.3457627 v 3.8320725 3.8320728 l 1.2033898,-0.01851 1.2033899,-0.01851 z m 3.8437481,3.78475 c 0.021316,-0.03449 0.035384,-0.98788 0.031264,-2.118644 -0.00412,-1.130765 -0.00552,-2.1169535 -0.00311,-2.1915297 0.00469,-0.1452102 0.056183,-0.4635295 0.079513,-0.4915255 0.00777,-0.00932 0.020572,-0.03983 0.028454,-0.067797 0.069696,-0.2473037 0.4664732,-0.7169363 0.5419498,-0.6414603 0.020317,0.020317 0.03694,0.00135 0.03694,-0.042155 0,-0.043503 0.022881,-0.075483 0.050847,-0.071068 0.027966,0.00441 0.066102,0.00231 0.084746,-0.00467 0.3469356,-0.1299762 1.0663871,-0.081826 1.0300731,0.06894 -0.01563,0.064908 0.0018,0.067487 0.07059,0.010422 0.07032,-0.058362 0.113549,-0.041487 0.187694,0.07327 0.05298,0.082003 0.08986,0.171977 0.08195,0.1999431 -0.0079,0.027966 0.0085,0.047235 0.03647,0.042819 0.121082,-0.019118 0.225995,0.012014 0.198402,0.058876 -0.01647,0.027966 0.0012,0.1271186 0.03915,0.220339 0.147159,0.3610027 0.143221,0.285141 0.126683,2.4406774 -0.007,0.91356 -0.01174,1.86695 -0.01052,2.118644 l 0.0022,0.457628 h 1.220339 1.220339 l -4.07e-4,-2.355933 c -2.71e-4,-1.5051093 -0.02733,-2.4530008 -0.075,-2.6247168 -0.05418,-0.195162 -0.05423,-0.2755837 -1.36e-4,-0.2936047 0.05397,-0.017989 0.05405,-0.062951 3.39e-4,-0.1633702 -0.04078,-0.076202 -0.08456,-0.203402 -0.09728,-0.2826664 -0.03995,-0.2488672 -0.06694,-0.3448705 -0.121528,-0.4322516 -0.03214,-0.051443 -0.01807,-0.085556 0.0358,-0.086807 0.05411,-0.00125 0.04188,-0.029345 -0.03132,-0.071963 -0.06604,-0.038446 -0.102373,-0.098535 -0.08075,-0.1335315 0.0216,-0.034997 0.0052,-0.06363 -0.0365,-0.06363 -0.04169,0 -0.05694,-0.030508 -0.0339,-0.067797 0.02304,-0.037288 0.0078,-0.067797 -0.0339,-0.067797 -0.04169,0 -0.05892,-0.027312 -0.03829,-0.060693 0.02063,-0.03338 -0.01485,-0.080784 -0.07885,-0.1053417 -0.09325,-0.035782 -0.09812,-0.055918 -0.02455,-0.1013871 0.07033,-0.043465 0.05757,-0.067605 -0.05455,-0.1031898 -0.0805,-0.025549 -0.194816,-0.1204093 -0.254043,-0.2108016 -0.05923,-0.090392 -0.14994,-0.1643496 -0.201584,-0.1643496 -0.05164,0 -0.0939,-0.047563 -0.0939,-0.1056961 0,-0.058133 -0.03051,-0.086841 -0.0678,-0.063795 -0.03729,0.023045 -0.0678,0.011343 -0.0678,-0.026004 0,-0.037348 -0.06102,-0.056154 -0.135593,-0.041792 -0.07458,0.014362 -0.135593,-0.00591 -0.135593,-0.045044 0,-0.039137 -0.04479,-0.053972 -0.09952,-0.032967 -0.05474,0.021005 -0.116356,0.010956 -0.136929,-0.022331 -0.04225,-0.068365 -0.02819,-0.067368 -0.949989,-0.067368 -0.9407132,0 -0.9151363,-0.00243 -0.9162915,0.087177 -7.051e-4,0.054629 -0.019477,0.051445 -0.058362,-0.0099 -0.04582,-0.072282 -0.065923,-0.068019 -0.1001777,0.021246 -0.02357,0.061422 -0.073578,0.092688 -0.1111301,0.06948 -0.037551,-0.023208 -0.068742,-0.00226 -0.069313,0.04655 -7.545e-4,0.064487 -0.019003,0.060948 -0.066759,-0.012948 -0.055722,-0.086224 -0.065878,-0.083037 -0.066759,0.02095 -5.423e-4,0.067455 -0.031762,0.1036567 -0.069313,0.080449 -0.037552,-0.023208 -0.085839,0.00357 -0.1073057,0.059515 -0.021466,0.055941 -0.079512,0.086177 -0.1289899,0.06719 -0.050251,-0.019283 -0.1087918,0.024817 -0.1326257,0.099911 -0.023467,0.073937 -0.1187207,0.1842635 -0.2116753,0.2451697 -0.092955,0.060906 -0.150981,0.1399063 -0.1289485,0.1755565 0.022033,0.03565 0.00775,0.064818 -0.031738,0.064818 -0.039489,0 -0.071798,0.047563 -0.071798,0.1056963 0,0.058133 -0.030508,0.086841 -0.067797,0.063795 -0.037288,-0.023045 -0.067797,-0.2689139 -0.067797,-0.546374 V 6.0067797 H 7.3288136 6.2101695 v 3.8305084 3.8305089 h 1.1824393 c 0.6511932,0 1.1998522,-0.02817 1.2211953,-0.06271 z M 3.8015599,4.9249948 c 0.022039,-0.03566 0.084856,-0.04765 0.1395943,-0.026645 0.057186,0.021944 0.099965,-9.464e-4 0.1005619,-0.053808 8.011e-4,-0.070988 0.016047,-0.068774 0.066758,0.0097 0.047755,0.073896 0.066004,0.077435 0.066758,0.012948 5.695e-4,-0.048811 0.028078,-0.072035 0.061127,-0.05161 0.033049,0.020425 0.075955,-0.023537 0.095348,-0.097694 0.020814,-0.079591 0.09254,-0.1348308 0.1750716,-0.1348308 0.096073,0 0.1276727,-0.031636 0.1010078,-0.1011234 -0.022124,-0.057655 0.00777,-0.118994 0.069535,-0.1426972 0.059587,-0.022866 0.09146,-0.068886 0.07083,-0.1022665 -0.02063,-0.033381 -0.0052,-0.060693 0.034288,-0.060693 0.039489,0 0.068185,-0.022881 0.063769,-0.050848 -0.00442,-0.027966 -7.152e-4,-0.066102 0.00822,-0.084746 C 4.8633685,4.0220369 4.8795405,3.82388 4.8903705,3.6003325 4.9111943,3.1705681 4.82648,2.9442458 4.5322034,2.6434441 4.4483051,2.5576854 4.379661,2.4607088 4.379661,2.4279404 c 0,-0.032768 -0.045763,-0.064664 -0.1016949,-0.070878 L 4.0745763,2.3344633 c -0.055932,-0.00621 -0.1016949,-0.031288 -0.1016949,-0.055718 0,-0.068623 -0.8103538,-0.060815 -0.8530194,0.00822 -0.020738,0.033555 -0.066106,0.043457 -0.1008178,0.022004 -0.034712,-0.021453 -0.063112,-0.0067 -0.063112,0.032792 0,0.039489 -0.022881,0.06526 -0.050847,0.05727 C 2.8354634,2.3791397 2.3548639,2.8746379 2.4,2.919774 2.419887,2.939661 2.39876,2.955932 2.353061,2.955932 c -0.045703,0 -0.064242,0.030509 -0.041197,0.067797 0.023045,0.037288 0.00825,0.067797 -0.032869,0.067797 -0.041123,0 -0.068463,0.038136 -0.060754,0.084746 0.00771,0.04661 -0.0095,0.1685759 -0.038238,0.2710348 -0.02874,0.102459 -0.027826,0.2397472 0.00203,0.3050848 0.029857,0.065338 0.057835,0.1493041 0.062174,0.1865923 0.019217,0.1651358 0.116114,0.3728813 0.17392,0.3728813 0.034775,0 0.063228,0.041034 0.063228,0.091187 0,0.1158581 0.233337,0.3308429 0.2936375,0.2705425 0.02494,-0.02494 0.045346,-0.011808 0.045346,0.029182 0,0.068704 0.1755398,0.1542838 0.3960428,0.1930801 0.050027,0.0088 0.1085015,0.033547 0.1299435,0.054989 0.063929,0.063929 0.4119621,0.044166 0.4552346,-0.02585 z"
     id="path130"
     inkscape:connector-curvature="0" />
  <path
     style="fill:#3faff2;fill-opacity:1;stroke-width:0.06779661"
     d="m 0.86927831,15.960804 c -0.0455607,-0.04556 -0.0828376,-0.05675 -0.0828376,-0.02487 0,0.03188 -0.0610169,0.0027 -0.13559322,-0.06475 -0.0745763,-0.06749 -0.13559322,-0.09827 -0.13559322,-0.0684 0,0.08532 -0.2922976,-0.263267 -0.42525844,-0.507149 C 0.01787226,15.163342 -0.00676849,15.044584 0.02836914,14.99862 0.06057,14.956498 0.07899407,12.679661 0.06931151,9.9389831 0.05962894,7.1983051 0.04837889,4.040678 0.0443114,2.9220339 0.04024389,1.8033898 0.04137524,0.85762712 0.0468255,0.82033898 c 0.0054503,-0.0372881 0.0062967,-0.090678 0.001881,-0.11864406 -0.0044157,-0.0279661 0.02428044,-0.0508475 0.06376921,-0.0508475 0.0394888,0 0.0543,-0.028312 0.0329138,-0.0629155 C 0.12400342,0.55332843 0.16971326,0.50495515 0.246967,0.48043576 0.32422075,0.45591637 0.41613205,0.36035862 0.45121434,0.2680852 0.48629663,0.17581178 0.5455659,0.11920593 0.58292386,0.14229442 c 0.037358,0.0230885 0.0679236,0.004585 0.0679236,-0.0411181 0,-0.04570346 0.0200743,-0.0630229 0.0446096,-0.03848765 0.0245353,0.02453524 0.0779251,0.02102695 0.11864406,-0.0077962 C 0.85482007,0.02606925 1.3305085,0.01870682 1.8711864,0.03853146 2.4118644,0.05835611 5.6,0.05932203 8.9559322,0.04067797 14.652643,0.00902957 15.072252,0.01457748 15.277966,0.1242655 c 0.121187,0.0646172 0.220339,0.0985926 0.220339,0.0755008 0,-0.13533906 0.397966,0.40032797 0.435861,0.58667441 0.0038,0.0186441 0.02168,0.0644068 0.03975,0.10169491 0.01807,0.0372881 0.01761,0.66271188 -10e-4,1.38983048 -0.03121,1.2171412 -0.03408,7.0304142 -0.0055,11.0847459 0.0066,0.932203 0.0082,1.710169 0.0035,1.728813 -0.0046,0.01864 -0.01932,0.09186 -0.03263,0.162705 -0.01331,0.07084 -0.06437,0.154274 -0.113457,0.185403 -0.04909,0.03113 -0.06164,0.05706 -0.0279,0.05763 0.03374,5.42e-4 0.0061,0.06205 -0.06136,0.136631 -0.06749,0.07458 -0.163744,0.135594 -0.213897,0.135594 -0.05015,0 -0.09119,0.03231 -0.09119,0.0718 0,0.03949 -0.03051,0.05294 -0.0678,0.0299 -0.03729,-0.02304 -0.0678,-0.01468 -0.0678,0.0186 0,0.05832 -0.06894,0.07722 -0.322034,0.08829 -0.06525,0.0029 -3.205452,0.003 -6.9782192,2.71e-4 -3.7727665,-0.0027 -6.9007438,0.01088 -6.9510606,0.03019 -0.0503169,0.01931 -0.12876215,-0.0022 -0.17432283,-0.04773 z M 4.770056,9.820339 4.7875696,6.0067797 H 3.5666662 2.3457627 v 3.8320725 3.8320728 l 1.2033898,-0.01851 1.2033899,-0.01851 z m 3.8468932,1.599654 c 0,-1.217649 0.016643,-2.2036018 0.036984,-2.1910079 0.020342,0.012595 0.033757,-0.058944 0.029811,-0.1589756 C 8.6797993,8.969979 8.6931986,8.8576271 8.7135193,8.820339 8.73384,8.7830508 8.7535681,8.7372881 8.7573593,8.7186441 8.8024908,8.4967159 9.1953586,8.0526902 9.3121437,8.0916183 9.3499444,8.104219 9.4225485,8.0750305 9.4734868,8.0267553 9.6003044,7.9065688 9.9339295,7.863238 10.291743,7.9204807 c 0.17975,0.028756 0.819398,0.4763559 0.796584,0.5574162 -0.0064,0.022676 0.0098,0.1090014 0.03589,0.1918353 0.09517,0.3017749 0.100907,0.4601525 0.09822,2.7099288 l -0.0027,2.288136 h 1.224041 1.224041 v -2.437489 c 0,-1.793247 -0.02219,-2.4861846 -0.08395,-2.6217338 -0.06636,-0.1456501 -0.06648,-0.1900711 -5.43e-4,-0.2120495 0.05819,-0.019397 0.06379,-0.064448 0.01854,-0.1490122 -0.03568,-0.066665 -0.0456,-0.1404752 -0.02206,-0.1640223 0.02355,-0.023547 0.01008,-0.042812 -0.02994,-0.042812 -0.04001,0 -0.05769,-0.057574 -0.03929,-0.1279417 0.0184,-0.070368 0.0016,-0.1476163 -0.03728,-0.1716631 -0.03891,-0.024046 -0.05356,-0.088506 -0.03255,-0.1432447 0.021,-0.054738 0.0026,-0.099523 -0.04086,-0.099523 -0.04348,0 -0.0615,-0.028401 -0.04005,-0.063112 0.02145,-0.034712 0.0075,-0.082582 -0.031,-0.1063796 -0.0385,-0.023797 -0.05246,-0.071668 -0.031,-0.1063797 0.02145,-0.034711 0.0049,-0.063112 -0.0368,-0.063112 -0.04169,0 -0.05694,-0.030508 -0.0339,-0.067797 0.02304,-0.037288 0.0078,-0.067797 -0.0339,-0.067797 -0.04169,0 -0.05892,-0.027312 -0.03829,-0.060693 0.02063,-0.03338 -0.0084,-0.078294 -0.06442,-0.099808 -0.05606,-0.021514 -0.09559,-0.062846 -0.08783,-0.091849 0.0078,-0.029004 -0.09874,-0.1731029 -0.236659,-0.3202201 -0.137919,-0.1471173 -0.250762,-0.2416017 -0.250762,-0.2099655 0,0.031636 -0.05339,-0.00363 -0.118644,-0.078362 -0.06525,-0.074735 -0.172034,-0.1278655 -0.237288,-0.1180674 -0.06525,0.0098 -0.118644,-0.013258 -0.118644,-0.051236 0,-0.037978 -0.04479,-0.051865 -0.09952,-0.03086 -0.05474,0.021005 -0.116378,0.010922 -0.136976,-0.022407 -0.05264,-0.085173 -1.8651959,-0.078408 -1.8651959,0.00696 0,0.037158 -0.028401,0.050008 -0.063112,0.028555 -0.034712,-0.021453 -0.082582,-0.0075 -0.1063797,0.031003 -0.023797,0.038505 -0.071668,0.052456 -0.1063796,0.031003 C 9.6284007,6.0163298 9.6,6.0301289 9.6,6.0684473 c 0,0.038318 -0.042597,0.053324 -0.094661,0.033345 -0.052253,-0.020051 -0.1433709,0.033219 -0.2033898,0.1189079 -0.059801,0.085378 -0.1087289,0.1285099 -0.1087289,0.095849 0,-0.032661 -0.1144067,0.058637 -0.2542372,0.2028844 C 8.7991525,6.663681 8.6903478,6.7995746 8.6971953,6.82142 8.7040453,6.843266 8.6506533,6.89798 8.5785512,6.9430078 8.4533281,7.0212115 8.4474576,7.0020827 8.4474576,6.5158287 V 6.0067797 H 7.3288136 6.2101695 v 3.8320725 3.8320728 l 1.2033898,-0.01851 1.2033899,-0.01851 z M 3.8015599,4.9249948 c 0.022039,-0.03566 0.084856,-0.04765 0.1395943,-0.026645 0.054738,0.021005 0.099524,0.00262 0.099524,-0.04086 0,-0.043478 0.029696,-0.060698 0.06599,-0.038267 0.036295,0.022431 0.1180079,-0.019968 0.1815851,-0.094221 0.063577,-0.074253 0.1407183,-0.1194777 0.1714248,-0.1005 0.030707,0.018978 0.085526,-0.043602 0.1218218,-0.1390663 0.036295,-0.095464 0.099056,-0.1735711 0.1394674,-0.1735711 0.040412,0 0.054621,-0.030508 0.031575,-0.067797 -0.023045,-0.037288 -0.00779,-0.067797 0.033898,-0.067797 0.041689,0 0.056944,-0.030509 0.033898,-0.067797 -0.023045,-0.037288 -0.014426,-0.067797 0.019154,-0.067797 0.087363,0 0.080772,-0.8211485 -0.00789,-0.9830509 C 4.790762,2.9830508 4.7562661,2.9065205 4.7549447,2.8875597 4.7503549,2.8216925 4.1594674,2.277916 4.0833504,2.2695108 c -0.4342195,-0.047948 -0.991825,-0.03861 -0.991825,0.01661 0,0.037205 -0.030509,0.048789 -0.067797,0.025744 -0.037288,-0.023045 -0.067797,-0.00959 -0.067797,0.029897 0,0.039489 -0.024464,0.064171 -0.054364,0.054849 -0.0299,-0.00932 -0.159561,0.1050847 -0.2881356,0.2542373 C 2.4848584,2.8 2.3565896,2.9322668 2.3283911,2.9447736 c -0.028198,0.012507 -0.034025,0.050642 -0.012948,0.084746 0.021077,0.034103 0.00468,0.062006 -0.036448,0.062006 -0.041123,0 -0.068463,0.038136 -0.060754,0.084746 0.00771,0.04661 -0.0095,0.1685759 -0.038238,0.2710348 -0.02874,0.102459 -0.027826,0.2397472 0.00203,0.3050848 0.029856,0.065338 0.057835,0.1493041 0.062174,0.1865923 0.018173,0.1561667 0.1146581,0.3728813 0.1660127,0.3728813 0.030426,0 0.071869,0.063281 0.092095,0.1406246 0.020226,0.077344 0.1000552,0.157173 0.1773987,0.1773987 0.077344,0.020226 0.1406246,0.061668 0.1406246,0.092095 0,0.052372 0.1969713,0.1388479 0.3960428,0.1738735 0.050027,0.0088 0.1085016,0.033547 0.1299436,0.054989 0.063929,0.063929 0.4119621,0.044166 0.4552345,-0.02585 z"
     id="path132"
     inkscape:connector-curvature="0" />
</svg>
